<svg xmlns="http://www.w3.org/2000/svg" width="192" height="47" viewBox="0 0 192 47">
  <g fill="none">
    <path fill="#FEC340" d="M39.1488251,19.2124105 C39.1488251,30.4105012 33.6657963,30.0811456 33.6657963,27.5560859 C33.6657963,25.0310263 36.1879896,23.0548926 36.1879896,18.5536993 C36.1879896,10.1002387 29.8276762,7.46539379 29.8276762,0.988066826 C29.8276762,0.988066826 28.6214099,3.18377088 28.6214099,6.14797136 C28.6214099,9.88066826 30.2663185,10.6491647 30.2663185,14.2720764 C30.2663185,19.7613365 24.6736292,18.6634845 24.6736292,12.7350835 C24.6736292,11.7470167 24.7832898,10.4295943 24.7832898,9.55131265 C24.7832898,4.28162291 19.3002611,3.40334129 19.3002611,3.40334129 C19.3002611,3.40334129 20.7258486,4.50119332 20.7258486,7.575179 C20.7258486,10.7589499 16.5587467,11.1980907 16.5587467,5.37947494 C16.5587467,1.75656325 16.997389,0 16.997389,0 C16.997389,0 13.2689295,2.30548926 13.2689295,6.47732697 C13.2689295,9.55131265 14.2558747,11.0883055 14.2558747,12.7350835 C14.2558747,14.7112172 13.2689295,15.5894988 12.0626632,15.699284 L11.1853786,11.9665871 C10.6370757,11.9665871 9.97911227,13.6133652 9.4308094,14.7112172 C8.5535248,13.9427208 8.00522193,12.7350835 8.00522193,11.1980907 C8.00522193,9.33174224 8.9921671,8.45346062 8.9921671,8.45346062 C8.9921671,8.45346062 5.37336815,9.11217184 5.37336815,14.4916468 C5.37336815,15.8090692 5.81201044,18.0047733 5.81201044,20.3102625 C5.81201044,23.274463 0,26.0190931 0,33.9236277 C0,42.3770883 4.38642298,46 4.38642298,46 L31.4725849,46 C31.4725849,46 42,40.8400955 42,27.3365155 C41.7806789,22.2863962 39.1488251,19.2124105 39.1488251,19.2124105 Z"/>
    <path fill="#F04E23" d="M32,35.1325137 C30.3333333,35.1325137 27.8888889,37.9672199 27.8888889,37.9672199 L30.2222222,30.9894816 C30.2222222,30.9894816 30.5555556,29.0269927 30.5555556,27.6096396 C30.5555556,23.793689 26,21.3950914 27.6666667,19.6506568 C25.2222222,19.6506568 24.7777778,24.1207704 23.2222222,24.1207704 C23.2222222,17.4701136 20.5555556,13 18.5555556,13 C16.1111111,13 11.3333333,20.7409284 11.3333333,23.5756346 C11.3333333,26.3013137 12.7777778,30.1172643 12.1111111,30.1172643 C9.77777778,30.1172643 8.66666667,23.139526 6.33333333,23.139526 C7.55555556,24.3388248 5,28.4818569 5,33.1700248 C5,37.8581928 7.55555556,39.8206817 7.55555556,41.8921977 C7.55555556,42.5463607 11.1111111,43.5276051 11.1111111,42.6553878 C11.1111111,41.8921977 9.77777778,41.7831706 9.77777778,38.5123557 C9.77777778,35.350568 8.44444444,32.0797532 7.55555556,31.3165631 C9.33333333,31.3165631 10.1111111,34.9144594 14.4444444,34.9144594 C18.7777778,34.9144594 16.7777778,30.9894816 16.3333333,29.6811557 C15.8888889,28.1547754 15.4444444,26.6283952 15.1111111,25.1020149 C15,24.4478519 15.2222222,23.793689 15.5555556,23.139526 C16.1111111,22.0492544 16.7777778,21.1770371 17.5555556,20.1957926 C18.1111111,19.4326025 18.6666667,18.6694124 19,19.8687112 C19.1111111,20.5228741 19.1111111,21.1770371 19.2222222,21.8312001 C19.3333333,22.8124445 19.4444444,23.9027161 19.4444444,24.8839606 C19.4444444,26.7374223 19.6666667,28.4818569 20.2222222,30.3353186 C20.5555556,31.2075359 21.7777778,34.0422421 23.1111111,33.0609977 C24.1111111,32.2978075 25.2222222,31.4255902 25.2222222,30.1172643 C25.2222222,26.6283952 27.4444444,25.9742322 27.4444444,25.9742322 C27.4444444,25.9742322 26.3333333,26.9554766 26.3333333,31.3165631 C26.3333333,33.279052 25,35.4595952 24.6666667,37.4220841 C24.5555556,37.7491656 23.7777778,41.4560891 24.6666667,41.0199804 C25.2222222,40.8019261 27.7777778,39.1665187 28.3333333,39.7116545 C28.7777778,40.038736 32,40.038736 32,38.73041 C32,37.4220841 30.5555556,36.5498668 32,35.1325137 Z"/>
    <path fill="#332A27" d="M12.0077519 33.7173913C8.31782946 33.7173913 4.08527132 44.4782609 4.08527132 46L30.6744186 46C30.6744186 46 31 45.0217391 31 44.2608696 30.6744186 39.6956522 31 34.4782609 27.9612403 31 27.3100775 29.4782609 24.9224806 29.0434783 24.1627907 29.0434783 24.1627907 29.0434783 24.2713178 28.5 24.2713178 28.173913 24.2713178 27.5217391 23.8372093 27.1956522 23.5116279 26.9782609 23.1860465 26.7608696 23.1860465 26 22.751938 26 22.5348837 26 22.2093023 26.1086957 22.2093023 26.1086957 22.2093023 26.1086957 22.1007752 25.0217391 22.5348837 25.0217391 24.5968992 25.0217391 29.1550388 31.326087 29.1550388 28.3913043 29.1550388 26.326087 27.2015504 23.7173913 25.8992248 22.4130435 25.248062 21.7608696 23.620155 20.4565217 23.620155 20.4565217 23.620155 15.2391304 19.9302326 11.326087 16.1317829 11.326087 13.5271318 11.326087 11.8992248 12.3043478 11.8992248 12.3043478 11.5736434 11.9782609 11.7906977 11 11.248062 11 10.7054264 11 8.31782946 13.7173913 8.31782946 17.9565217 8.31782946 17.9565217 3 18.5 3 19.5869565 3 21 8.20930233 20.3478261 8.20930233 21.326087 8.20930233 21.326087 8.10077519 21.6521739 8.10077519 21.9782609 8.10077519 22.8478261 8.64341085 23.173913 8.64341085 23.6086957 8.64341085 23.826087 7.55813953 25.0217391 7.55813953 26.2173913 7.55813953 27.1956522 8.96899225 26.6521739 8.96899225 26.9782609 8.96899225 27.1956522 8.75193798 27.6304348 8.75193798 27.9565217 8.75193798 28.2826087 9.40310078 28.3913043 9.40310078 28.3913043 9.40310078 28.3913043 9.07751938 28.6086957 9.07751938 28.7173913 9.07751938 28.9347826 9.18604651 29.3695652 9.40310078 29.3695652 10.1627907 29.3695652 9.40310078 31.6521739 10.9224806 31.6521739 11.248062 31.6521739 12.2248062 31.5434783 12.6589147 31.5434783 12.9844961 31.6521739 13.4186047 33.7173913 12.0077519 33.7173913zM9.07751938 18.0652174C9.07751938 15.673913 10.0542636 13.3913043 10.7054264 12.7391304 10.7054264 14.8043478 11.4651163 18.2826087 11.4651163 18.2826087 11.4651163 18.2826087 10.4883721 18.0652174 9.07751938 18.0652174zM74 46L79.686747 13 102.652456 13 101.34013 20.3961039 86.7951807 20.3961039 85.7015755 26.9090909 99.0435589 26.9090909 97.7312326 34.3051948 84.3892493 34.3051948 82.42076 46 74 46zM119.384615 13C128.461538 13 134.038925 19.01929 134.038925 27.5107884 134.038925 38.1520331 126.493049 45.9986076 116.759963 45.9986076 107.7924 46.1060949 102.105653 39.9793176 102.105653 31.4878192 102.105653 20.8465744 109.651529 13 119.384615 13zM119.165894 20.5064935C114.354032 20.5064935 110.745134 24.8116883 110.745134 31.7662338 110.745134 36.1818182 113.151066 39.3831169 117.088044 39.3831169 121.790547 39.3831169 125.508804 35.0779221 125.508804 28.1233766 125.508804 23.7077922 123.102873 20.5064935 119.165894 20.5064935zM143.115848 46L134.695088 46 140.381835 13.5519481 154.489342 13.5519481C160.941613 13.5519481 164.878591 17.0844156 164.878591 23.1558442 164.878591 29.0064935 161.379055 32.9805195 156.567192 34.6363636L162.47266 46 153.395737 46 148.146432 35.5194805 144.974977 35.5194805 143.115848 46zM146.177943 28.6753247L151.427247 28.6753247C154.708063 28.6753247 156.567192 26.9090909 156.567192 23.9285714 156.567192 22.0519481 155.364226 20.7272727 152.739574 20.7272727L147.599629 20.7272727 146.177943 28.6753247zM166.518999 35.7402597C169.253012 37.9480519 173.08063 39.7142857 176.798888 39.7142857 179.642261 39.7142857 181.938832 38.9415584 181.938832 36.7337662 181.938832 35.5194805 180.954588 34.8571429 179.532901 34.3051948L174.939759 32.6493506C170.674699 31.2142857 167.940686 28.7857143 167.940686 24.3701299 167.940686 16.974026 174.392956 13 181.173309 13 186.313253 13 189.484708 14.3246753 192 15.9805195L190.687674 23.8181818C188.172382 21.7207792 185.110287 20.1753247 181.282669 20.1753247 178.658017 20.1753247 176.580167 20.9480519 176.580167 22.9350649 176.580167 24.1493506 177.455051 24.7012987 178.986098 25.2532468L184.016682 27.0194805C188.172382 28.5649351 190.797034 31.3246753 190.797034 35.2987013 190.797034 43.5779221 183.797961 46.263916 176.908248 46.263916 171.549583 46.263916 167.503244 44.6080719 165.206673 43.0626173L166.518999 35.7402597z"/>
    <polygon fill="#FEC340" points="74.275 46 66.239 46 56.991 28.946 54.018 46 44 46 49.725 13 58.862 13 67.229 28.946 69.982 13 80 13"/>
  </g>
</svg>
