<svg xmlns="http://www.w3.org/2000/svg" width="23" height="25" viewBox="0 0 23 25">
  <g fill="none">
    <path fill="#FEC340" d="M21.5699619,10.5227743 C21.5699619,16.6252588 18.5435111,16.4389234 18.5435111,15.0621118 C18.5435111,13.6853002 19.9163342,12.6190476 19.9163342,10.1501035 C19.9163342,5.55900621 16.4582761,4.09937888 16.4582761,0.595238095 C16.4582761,0.595238095 15.7718646,1.76501035 15.7718646,3.37991718 C15.7718646,5.40890269 16.6506794,5.84886128 16.6506794,7.81055901 C16.6506794,10.7867495 13.6034282,10.1915114 13.6034282,6.98757764 C13.5826279,6.46480331 13.6554291,5.70910973 13.6554291,5.24327122 C13.6554291,2.39648033 10.6809792,1.89440994 10.6809792,1.89440994 C10.6809792,1.89440994 11.4349919,2.51035197 11.4349919,4.13561077 C11.4349919,5.86438923 9.12095304,6.08178054 9.12095304,2.91407867 C9.12095304,0.942028986 9.36015705,0 9.36015705,0 C9.36015705,0 7.29572241,1.23706004 7.29572241,3.54037267 C7.29572241,5.23291925 7.84693166,6.0300207 7.84693166,6.94099379 C7.84693166,7.99171843 7.3009225,8.4989648 6.64051142,8.5610766 L6.16210339,6.5010352 C5.88129868,6.5010352 5.47049179,7.37060041 5.21048742,8.01242236 C4.75807983,7.58799172 4.42527425,6.93581781 4.42527425,6.09213251 C4.42527425,5.05693582 4.94528297,4.60662526 4.94528297,4.60662526 C4.94528297,4.60662526 2.97444991,4.9378882 2.97444991,7.86749482 C2.97444991,8.5610766 3.19805366,9.75672878 3.19805366,11.0248447 C3.19805366,12.6345756 0,14.1252588 0,18.426501 C0,23.0331263 2.39724022,25 2.39724022,25 L17.2278891,25 C17.2278891,25 23,22.1687371 23,14.8084886 C23.005186,12.1532091 21.5699619,10.5227743 21.5699619,10.5227743 Z"/>
    <path fill="#F04E23" d="M17,18.8300894 C16.1062767,18.8300894 14.8480742,20.3339996 14.8480742,20.3339996 L16.0563481,16.5867986 C16.0563481,16.5867986 16.2510699,15.5607195 16.2510699,14.7710409 C16.2510699,12.7641507 13.8644793,11.4564027 14.778174,10.5409791 C13.5249643,10.5409791 13.2503566,12.9200745 12.446505,12.9200745 C12.446505,9.36903576 11.0884451,7 10.0499287,7 C8.79671897,7 6.31027104,11.1546147 6.31027104,12.6333759 C6.31027104,14.1121371 7.05920114,16.1391465 6.68972896,16.1391465 C5.4914408,16.1391465 4.92724679,12.4221243 3.69900143,12.4221243 C4.31312411,13.0407897 3,15.2438421 3,17.7637718 C3,20.2384334 4.33808845,21.3299 4.33808845,22.411307 C4.31312411,22.7835121 6.17546362,23.2563133 6.17546362,22.8338101 C6.17546362,22.4163368 5.48644793,22.3408898 5.48644793,20.6357876 C5.48644793,18.9306854 4.7724679,17.1954044 4.35805991,16.777931 C5.29172611,16.777931 5.66119829,18.6791954 7.92296719,18.6791954 C10.189729,18.6791954 9.11626248,16.5616496 8.91654779,15.8775969 C8.67189729,15.0476799 8.43223966,14.2680609 8.30741797,13.4079651 C8.25249643,13.0357599 8.34236805,12.6887037 8.5171184,12.3567369 C8.81169757,11.7984291 9.17617689,11.3105385 9.53067047,10.7924691 C9.79029957,10.4152341 10.1048502,10.0078204 10.2546362,10.6264857 C10.3345221,10.9685121 10.3295292,11.3155683 10.3544936,11.6626245 C10.3944365,12.2008131 10.4443652,12.7440315 10.4393723,13.3123989 C10.4343795,14.3233887 10.5592011,15.2337825 10.8587732,16.1995041 C11.0035663,16.6723052 11.6476462,18.1661558 12.331669,17.6682056 C12.8659058,17.280911 13.4201141,16.8181694 13.4201141,16.0888485 C13.4201141,14.2529715 14.5834522,13.8757365 14.5834522,13.8757365 C14.5834522,13.8757365 13.989301,14.4038655 13.989301,16.7376926 C13.989301,17.7889208 13.3252496,18.9306854 13.1005706,19.9869434 C13.0656205,20.1428672 12.6611983,22.1195786 13.1155492,21.8982674 C13.4001427,21.7624628 14.7582026,20.9325458 15.0378031,21.1739762 C15.2624822,21.3701384 16.9700428,21.3399596 16.9700428,20.6307578 C16.9700428,19.921556 16.2410842,19.5996488 17,18.8300894 Z"/>
    <path fill="#332A27" d="M7.02213363,17.9522782 C4.9866864,17.9522782 2.69041552,24.142626 2.69041552,25 L16.9999587,25 C16.9999587,25 17.0050306,24.7249933 16.9027469,24.1372338 C16.5038401,21.473443 15.6753415,19.4567269 14.6013618,17.1703963 C14.6013618,16.5718523 13.9467456,15.4718253 13.5376105,15.4718253 C13.5376105,15.4718253 13.6450084,15.0674036 13.6450084,14.8517121 C13.6450084,14.4688595 13.3841848,14.3178754 13.2205307,14.1399299 C13.0517625,13.9619844 13.0671051,13.5575627 12.7960531,13.5575627 C12.6835409,13.5575627 12.5096585,13.6276624 12.5096585,13.6276624 C12.5096585,13.6276624 12.4329456,13.0237261 12.6784267,13.0237261 C13.8291192,13.0237261 16.2685874,16.6473443 16.2685874,14.981127 C16.2685874,13.8217848 15.2150645,12.3065516 14.499078,11.5462389 C14.1257422,11.1526018 13.2307591,10.4462119 13.2307591,10.4462119 C13.2307591,7.46427609 11.2208828,5.1941224 9.1394079,5.1941224 C7.72277753,5.1941224 6.84313702,5.72256673 6.84313702,5.72256673 C6.64368365,5.51226746 6.77665256,5 6.46468703,5 C6.16806407,5 4.87417424,6.54758695 4.87417424,8.96872472 C4.87417424,8.96872472 2,9.2760852 2,9.88002157 C2,10.6834726 4.82814654,10.3221893 4.82814654,10.8668105 C4.82814654,10.8668105 4.7974614,11.0285791 4.7974614,11.2658398 C4.7974614,11.7565382 5.06851342,11.9506606 5.06851342,12.220275 C5.06851342,12.3281208 4.45992493,13.0506875 4.45992493,13.7193314 C4.45992493,14.2639525 5.21171072,13.9727689 5.21171072,14.1830682 C5.21171072,14.3124831 5.09919856,14.5281747 5.09919856,14.7276894 C5.09919856,14.9272041 5.46230598,14.9703424 5.46230598,14.9703424 C5.46230598,14.9703424 5.26285261,15.0781882 5.26285261,15.1806417 C5.26285261,15.2830952 5.32422287,15.5742788 5.46742017,15.5742788 C5.86121272,15.5742788 5.46230598,16.8522513 6.32148974,16.8522513 C6.51071473,16.8522513 7.04770458,16.7659747 7.26250052,16.7659747 C7.53355254,16.7659747 7.77391942,17.9522782 7.02213363,17.9522782 Z M5.38559314,8.96872472 C5.38559314,7.61526018 5.93792556,6.31571852 6.29591879,5.93825829 C6.29591879,7.14073874 6.73573905,9.14127797 6.73573905,9.14127797 C6.73573905,9.14127797 6.1527215,8.96872472 5.38559314,8.96872472 Z"/>
  </g>
</svg>
