<svg xmlns="http://www.w3.org/2000/svg" width="25" height="29" viewBox="0 0 25 29">
  <g fill="none" fill-rule="evenodd">
    <g fill-rule="nonzero">
      <path fill="#FEC340" d="M23.3028721,11.6945107 C23.3028721,18.5107399 20.0391645,18.3102625 20.0391645,16.7732697 C20.0391645,15.2362768 21.54047,14.0334129 21.54047,11.2935561 C21.54047,6.14797136 17.7545692,4.54415274 17.7545692,0.601431981 C17.7545692,0.601431981 17.0365535,1.93794749 17.0365535,3.74224344 C17.0365535,6.01431981 18.0156658,6.48210024 18.0156658,8.68735084 C18.0156658,12.0286396 14.6866841,11.3603819 14.6866841,7.75178998 C14.6866841,7.150358 14.7519582,6.34844869 14.7519582,5.81384248 C14.7519582,2.60620525 11.4882507,2.07159905 11.4882507,2.07159905 C11.4882507,2.07159905 12.3368146,2.7398568 12.3368146,4.61097852 C12.3368146,6.54892601 9.85639687,6.81622912 9.85639687,3.27446301 C9.85639687,1.06921241 10.1174935,0 10.1174935,0 C10.1174935,0 7.89817232,1.40334129 7.89817232,3.94272076 C7.89817232,5.81384248 8.48563969,6.74940334 8.48563969,7.75178998 C8.48563969,8.95465394 7.89817232,9.48926014 7.18015666,9.55608592 L6.65796345,7.28400955 C6.33159269,7.28400955 5.93994778,8.28639618 5.61357702,8.95465394 C5.09138381,8.48687351 4.76501305,7.75178998 4.76501305,6.81622912 C4.76501305,5.68019093 5.35248042,5.14558473 5.35248042,5.14558473 C5.35248042,5.14558473 3.19843342,5.54653938 3.19843342,8.82100239 C3.19843342,9.62291169 3.45953003,10.9594272 3.45953003,12.3627685 C3.45953003,14.1670644 0,15.8377088 0,20.6491647 C0,25.7947494 2.61096606,28 2.61096606,28 L18.7336815,28 C18.7336815,28 25,24.8591885 25,16.6396181 C24.8694517,13.5656325 23.3028721,11.6945107 23.3028721,11.6945107 Z"/>
      <path fill="#F04E23" d="M19,21.0172587 C18.0123457,21.0172587 16.563786,22.8125726 16.563786,22.8125726 L17.9465021,18.3933383 C17.9465021,18.3933383 18.1440329,17.1504287 18.1440329,16.2527717 C18.1440329,13.836003 15.4444444,12.3168912 16.4320988,11.2120827 C14.9835391,11.2120827 14.7201646,14.0431546 13.7983539,14.0431546 C13.7983539,9.83107195 12.218107,7 11.0329218,7 C9.58436214,7 6.75308642,11.902588 6.75308642,13.6979019 C6.75308642,15.4241653 7.6090535,17.8409341 7.21399177,17.8409341 C5.83127572,17.8409341 5.17283951,13.4216998 3.79012346,13.4216998 C4.51440329,14.1812557 3,16.805176 3,19.7743491 C3,22.7435221 4.51440329,23.9864317 4.51440329,25.2983919 C4.51440329,25.7126951 6.62139918,26.3341499 6.62139918,25.7817456 C6.62139918,25.2983919 5.83127572,25.2293414 5.83127572,23.1578253 C5.83127572,21.1553598 5.04115226,19.0838437 4.51440329,18.60049 C5.56790123,18.60049 6.02880658,20.8791576 8.59670782,20.8791576 C11.1646091,20.8791576 9.97942387,18.3933383 9.71604938,17.5647319 C9.4526749,16.5980244 9.18930041,15.6313169 8.99176955,14.6646094 C8.92592593,14.2503062 9.05761317,13.836003 9.25514403,13.4216998 C9.58436214,12.7311944 9.97942387,12.1787902 10.4403292,11.5573353 C10.7695473,11.0739816 11.0987654,10.5906278 11.2962963,11.3501837 C11.3621399,11.7644869 11.3621399,12.1787902 11.4279835,12.5930934 C11.4938272,13.2145482 11.5596708,13.9050535 11.5596708,14.5265084 C11.5596708,15.7003675 11.691358,16.805176 12.0205761,17.9790351 C12.218107,18.5314394 12.9423868,20.3267533 13.7325103,19.7052985 C14.3251029,19.2219448 14.9835391,18.6695405 14.9835391,17.8409341 C14.9835391,15.6313169 16.3004115,15.2170137 16.3004115,15.2170137 C16.3004115,15.2170137 15.6419753,15.8384685 15.6419753,18.60049 C15.6419753,19.8433996 14.8518519,21.2244103 14.654321,22.4673199 C14.5884774,22.6744715 14.127572,25.0221897 14.654321,24.7459876 C14.9835391,24.6078865 16.4979424,23.5721285 16.8271605,23.9173812 C17.090535,24.1245328 19,24.1245328 19,23.2959264 C19,22.4673199 18.1440329,21.9149157 19,21.0172587 Z"/>
      <path fill="#332A27" d="M7.46899225,20.6304348 C5.22868217,20.6304348 2.65891473,27.0869565 2.65891473,28 L18.8023256,28 C18.8023256,28 19,27.4130435 19,26.9565217 C18.8023256,24.2173913 19,21.0869565 17.1550388,19 C16.7596899,18.0869565 15.3100775,17.826087 14.8488372,17.826087 C14.8488372,17.826087 14.9147287,17.5 14.9147287,17.3043478 C14.9147287,16.9130435 14.6511628,16.7173913 14.4534884,16.5869565 C14.255814,16.4565217 14.255814,16 13.9922481,16 C13.8604651,16 13.6627907,16.0652174 13.6627907,16.0652174 C13.6627907,16.0652174 13.5968992,15.4130435 13.8604651,15.4130435 C15.1124031,15.4130435 17.879845,19.1956522 17.879845,17.4347826 C17.879845,16.1956522 16.6937984,14.6304348 15.9031008,13.8478261 C15.5077519,13.4565217 14.5193798,12.673913 14.5193798,12.673913 C14.5193798,9.54347826 12.2790698,7.19565217 9.97286822,7.19565217 C8.39147287,7.19565217 7.40310078,7.7826087 7.40310078,7.7826087 C7.20542636,7.58695652 7.3372093,7 7.00775194,7 C6.67829457,7 5.22868217,8.63043478 5.22868217,11.173913 C5.22868217,11.173913 2,11.5 2,12.1521739 C2,13 5.1627907,12.6086957 5.1627907,13.1956522 C5.1627907,13.1956522 5.09689922,13.3913043 5.09689922,13.5869565 C5.09689922,14.1086957 5.42635659,14.3043478 5.42635659,14.5652174 C5.42635659,14.6956522 4.76744186,15.4130435 4.76744186,16.1304348 C4.76744186,16.7173913 5.62403101,16.3913043 5.62403101,16.5869565 C5.62403101,16.7173913 5.49224806,16.9782609 5.49224806,17.173913 C5.49224806,17.3695652 5.8875969,17.4347826 5.8875969,17.4347826 C5.8875969,17.4347826 5.68992248,17.5652174 5.68992248,17.6304348 C5.68992248,17.7608696 5.75581395,18.0217391 5.8875969,18.0217391 C6.34883721,18.0217391 5.8875969,19.3913043 6.81007752,19.3913043 C7.00775194,19.3913043 7.60077519,19.326087 7.86434109,19.326087 C8.0620155,19.3913043 8.3255814,20.6304348 7.46899225,20.6304348 Z M5.68992248,11.2391304 C5.68992248,9.80434783 6.28294574,8.43478261 6.67829457,8.04347826 C6.67829457,9.2826087 7.13953488,11.3695652 7.13953488,11.3695652 C7.13953488,11.3695652 6.54651163,11.2391304 5.68992248,11.2391304 Z"/>
    </g>
    <g transform="translate(2 6)">
      <path fill="#F04E23" d="M15.9704713,17.5271874 L17.4586524,12.9376608 C17.4586524,12.9376608 17.6712149,11.6468401 17.6712149,10.7146132 C17.6712149,8.2047028 14.7657982,6.62705014 15.828763,5.47966078 C14.2697277,5.47966078 13.9862502,8.41983445 12.9941396,8.41983445 C12.9941396,4.0454395 11.293396,1.10526583 10.0178079,1.10526583 C8.4587726,1.10526583 5.41155625,6.19678683 5.41155625,8.06130224 C5.41155625,9.85408655 6.33281266,12.3639969 5.90762676,12.3639969 C4.41944567,12.3639969 3.71081266,7.7744395 2.22263157,7.7744395 C3.0021492,8.56326583 1.37222933,11.2883078 1.37222933,14.3719129 C1.37222933,17.4554871 3.0021492,18.746277 3.0021492,20.108798 C3.0021492,20.5390613 5.26981747,21.1844563 5.26981747,20.6107924 C5.26981747,20.108798 4.41944567,20.0370978 4.41944567,17.8857504 C4.41944567,15.8061342 3.56907388,13.654756 3.0021492,13.1527924 C4.13599856,13.1527924 4.63203862,15.5192714 7.3957774,15.5192714 C10.1595162,15.5192714 8.88395849,12.9376608 8.60051138,12.0771342 C8.31703381,11.0731762 8.03355625,10.0692182 7.82099375,9.06526022 C7.75010913,8.63496611 7.89184792,8.2047028 8.10444087,7.7744395 C8.4587726,7.05734426 8.88395849,6.48361877 9.38002901,5.83822381 C9.73433029,5.33626022 10.088662,4.83426583 10.3012854,5.62309216 C10.3721396,6.05338627 10.3721396,6.48361877 10.4429938,6.91391289 C10.5138479,7.55930784 10.5847325,8.27643389 10.5847325,8.92182885 C10.5847325,10.1409185 10.7264409,11.2883078 11.0807726,12.5073975 C11.293396,13.0810922 12.0728832,14.9455768 12.9232854,14.3001818 C13.5610643,13.7982182 14.2697277,13.2244927 14.2697277,12.3639969 C14.2697277,10.0692182 15.6869938,9.63892409 15.6869938,9.63892409 C15.6869938,9.63892409 14.9783607,10.2843499 14.9783607,13.1527924 C14.9783607,14.4436132 14.1279889,15.8778345 13.915396,17.1686244 C13.8445418,17.3837868 13.3484713,19.8219661 13.915396,19.5351034 C14.2697277,19.3917028 15.8996171,18.3160445 16.2539489,18.6745768"/>
      <path fill="#3F3837" d="M3.79907131,4.44901008 C3.79907131,2.94774118 4.40597516,1.51472157 4.81057772,1.10525658 C4.81057772,2.40183922 5.2826242,4.58547787 5.2826242,4.58547787 C5.2826242,4.58547787 4.67572035,4.44901008 3.79907131,4.44901008 M5.6020617,14.2754919 C3.31658093,14.2754919 0.694976763,21.0312174 0.694976763,21.9865535 L17.410105,21.9865535 C17.410105,21.9865535 17.3657107,21.3724022 17.3657107,20.8947188 C17.1640489,18.0286796 17.3657107,14.7531754 15.4835232,12.5695059 C14.6255088,11.4827244 13.6013662,11.3412034 13.1308117,11.3412034 C13.1308117,11.3412034 13.1980425,10.9999877 13.1980425,10.7952706 C13.1980425,10.3858364 12.9291498,10.1811193 12.727488,10.0446515 C12.5257957,9.90815294 12.5257957,9.43050028 12.256903,9.43050028 C12.122472,9.43050028 11.9208101,9.49871877 11.9208101,9.49871877 C11.9208101,9.49871877 11.8535793,8.81634902 12.122472,8.81634902 C13.3996739,8.81634902 16.2229399,12.774223 16.2229399,10.9317692 C16.2229399,9.63521737 15.0129687,7.99748067 14.2063213,7.17858151 C13.8029976,6.76914734 12.7947188,5.95027899 12.7947188,5.95027899 C12.7947188,2.67477479 10.5091771,0.218169748 8.15646554,0.218169748 C6.54317067,0.218169748 5.53486138,0.832321008 5.53486138,0.832321008 C5.33319952,0.627603922 5.46763061,0.0134526611 5.13153766,0.0134526611 C4.79541426,0.0134526611 3.31658093,1.71943866 3.31658093,4.38076078 C3.31658093,4.38076078 0.0227604167,4.72197647 0.0227604167,5.40434622 C0.0227604167,6.29146387 3.24935016,5.88202969 3.24935016,6.49618095 C3.24935016,6.49618095 3.18211939,6.70089804 3.18211939,6.90564594 C3.18211939,7.4515479 3.51824279,7.65626499 3.51824279,7.92923137 C3.51824279,8.06569916 2.84602644,8.81634902 2.84602644,9.56696807 C2.84602644,10.1811193 3.7198742,9.83993445 3.7198742,10.0446515 C3.7198742,10.1811193 3.58544311,10.4540857 3.58544311,10.6588028 C3.58544311,10.8635199 3.98876683,10.9317692 3.98876683,10.9317692 C3.98876683,10.9317692 3.78710497,11.068237 3.78710497,11.1364863 C3.78710497,11.2729541 3.85433574,11.5459204 3.98876683,11.5459204 C4.45932131,11.5459204 3.98876683,12.9789401 4.9298758,12.9789401 C5.13153766,12.9789401 5.73652324,12.9106908 6.00538542,12.9106908 C6.20704728,12.9789401 6.4759399,14.2754919 5.6020617,14.2754919"/>
      <path fill="#FFF" stroke="#3F3837" d="M12.8017151,17.8781494 L12.1620317,21.5042725 L8.40546199,21.5042725 L10.1466401,11.5 L13.3717325,11.5 L15.116878,14.8461058 L15.6909295,11.5 L19.4495416,11.5 L17.7083297,21.5042725 L14.7918572,21.5042725 L12.8017151,17.8781494 Z"/>
    </g>
  </g>
</svg>
