<svg xmlns="http://www.w3.org/2000/svg" width="154" height="168" viewBox="0 0 154 168">
  <g fill="none" opacity=".5">
    <path fill="#FEC340" d="M144.424962,70.7130435 C144.424962,111.721739 124.160901,110.469565 124.160901,101.217391 C124.160901,91.9652174 133.352846,84.8 133.352846,68.2086957 C133.352846,37.3565217 110.198892,27.5478261 110.198892,4 C110.198892,4 105.60292,11.8608696 105.60292,22.7130435 C105.60292,36.3478261 111.487158,39.3043478 111.487158,52.4869565 C111.487158,72.4869565 91.0838239,68.4869565 91.0838239,46.9565217 C90.944552,43.4434783 91.4320036,38.3652174 91.4320036,35.2347826 C91.4320036,16.1043478 71.5161217,12.7304348 71.5161217,12.7304348 C71.5161217,12.7304348 76.5647281,16.8695652 76.5647281,27.7913043 C76.5647281,39.4086957 61.070729,40.8695652 61.070729,19.5826087 C61.070729,6.33043478 62.6723559,0 62.6723559,0 C62.6723559,0 48.8496196,8.31304348 48.8496196,23.7913043 C48.8496196,35.1652174 52.540325,40.5217391 52.540325,46.6434783 C52.540325,53.7043478 48.8844376,57.1130435 44.4625547,57.5304348 L41.259301,43.6869565 C39.3791303,43.6869565 36.6285102,49.5304348 34.8876114,53.8434783 C31.8584476,50.9913043 29.6300971,46.6086957 29.6300971,40.9391304 C29.6300971,33.9826087 33.1118947,30.9565217 33.1118947,30.9565217 C33.1118947,30.9565217 19.915882,33.1826087 19.915882,52.8695652 C19.915882,57.5304348 21.4130549,65.5652174 21.4130549,74.0869565 C21.4130549,84.9043478 0,94.9217391 0,123.826087 C0,154.782609 16.0510867,168 16.0510867,168 L115.351953,168 C115.351953,168 154,148.973913 154,99.5130435 C154.034724,81.6695652 144.424962,70.7130435 144.424962,70.7130435 Z"/>
    <path fill="#F04E23" d="M117,128.331865 C110.807775,128.331865 102.090228,138.671247 102.090228,138.671247 L110.46184,112.909241 C110.46184,112.909241 111.810984,105.854946 111.810984,100.425906 C111.810984,86.6285361 95.275321,77.6377688 101.60592,71.3442316 C92.9229672,71.3442316 91.0203281,87.7005122 85.4507846,87.7005122 C85.4507846,63.2871209 76.0413695,47 68.8459344,47 C60.1629815,47 42.9354494,75.5629763 42.9354494,85.7294594 C42.9354494,95.8959425 48.124465,109.831632 45.5645506,109.831632 C37.2621255,109.831632 33.353067,84.2771047 24.8430813,84.2771047 C29.0980742,88.5304292 20,103.676414 20,121.000931 C20,138.01423 29.2710414,145.518062 29.2710414,152.952735 C29.0980742,155.511646 42.0014265,158.762154 42.0014265,155.857445 C42.0014265,152.987315 37.2275321,152.468617 37.2275321,140.74604 C37.2275321,129.023462 32.2806705,117.093406 29.4094151,114.223276 C35.878388,114.223276 38.4383024,127.294468 54.1091298,127.294468 C69.8145506,127.294468 62.3769615,112.736341 60.993224,108.033478 C59.2981455,102.327799 57.6376605,96.9679186 56.7728245,91.05476 C56.3922967,88.4958493 57.0149786,86.109838 58.2257489,83.8275663 C60.2667618,79.9892002 62.7920827,76.6349524 65.2482168,73.0732253 C67.0470756,70.4797348 69.2264622,67.6787649 70.2642653,71.9320895 C70.8177603,74.2835209 70.7831669,76.6695323 70.9561341,79.0555436 C71.2328816,82.7555902 71.578816,86.4902166 71.5442225,90.3977424 C71.5096291,97.3482972 72.374465,103.607254 74.4500713,110.24659 C75.453281,113.497099 79.9158345,123.767321 84.6551355,120.343914 C88.3566334,117.681263 92.196505,114.499915 92.196505,109.485833 C92.196505,96.864179 100.256776,94.2706884 100.256776,94.2706884 C100.256776,94.2706884 96.1401569,97.9015752 96.1401569,113.946637 C96.1401569,121.173831 91.5392297,129.023462 89.982525,136.285236 C89.7403709,137.357212 86.9383024,150.947103 90.0863053,149.425588 C92.0581312,148.491932 101.467546,142.786252 103.404779,144.446086 C104.961484,145.794701 116.792439,145.587222 116.792439,140.71146 C116.792439,135.835697 111.741797,133.622585 117,128.331865 Z"/>
    <path fill="#332A27" d="M49.1505087,122.542195 C35.3094675,122.542195 19.6948255,162.469938 19.6948255,168 L116.999719,168 C116.999719,168 117.034208,166.226207 116.338679,162.435158 C113.626113,145.253707 107.992322,132.245888 100.68926,117.499056 C100.68926,113.638447 96.23787,106.543273 93.4557512,106.543273 C93.4557512,106.543273 94.1860574,103.934753 94.1860574,102.543543 C94.1860574,100.074144 92.4124566,99.1002966 91.2996091,97.9525479 C90.1519851,96.8047991 90.2563145,94.1962793 88.4131608,94.1962793 C87.6480781,94.1962793 86.4656776,94.6484228 86.4656776,94.6484228 C86.4656776,94.6484228 85.9440303,90.7530332 87.6133016,90.7530332 C95.4380108,90.7530332 112.026394,114.125371 112.026394,103.378269 C112.026394,95.9005123 104.862438,86.127258 99.9937304,81.2232408 C97.455047,78.6842815 91.3691621,74.1280669 91.3691621,74.1280669 C91.3691621,54.8945807 77.7020033,40.2520895 63.5479737,40.2520895 C53.9148872,40.2520895 47.9333317,43.6605554 47.9333317,43.6605554 C46.5770488,42.3041251 47.4812374,39 45.3598718,39 C43.3428356,39 34.5443848,48.9819358 34.5443848,64.5982745 C34.5443848,64.5982745 15,66.5807495 15,70.4761391 C15,75.6583985 34.2313965,73.3281208 34.2313965,76.8409275 C34.2313965,76.8409275 34.0227375,77.8843354 34.0227375,79.414667 C34.0227375,82.5796711 35.8658913,83.8317606 35.8658913,85.5707738 C35.8658913,86.2663791 31.7274895,90.9269345 31.7274895,95.2396872 C31.7274895,98.7524939 36.8396329,96.8743597 36.8396329,98.23079 C36.8396329,99.0655163 36.0745502,100.456727 36.0745502,101.743597 C36.0745502,103.030466 38.5436807,103.308709 38.5436807,103.308709 C38.5436807,103.308709 37.1873977,104.004314 37.1873977,104.665139 C37.1873977,105.325964 37.6047155,107.204098 38.5784571,107.204098 C41.2562465,107.204098 38.5436807,115.447021 44.3861302,115.447021 C45.6728602,115.447021 49.3243911,114.890537 50.7850035,114.890537 C52.6281573,114.890537 54.2626521,122.542195 49.1505087,122.542195 Z M38.0220334,64.5982745 C38.0220334,55.8684281 41.7778938,47.4863845 44.2122478,45.051766 C44.2122478,52.8077649 47.2030255,65.7112429 47.2030255,65.7112429 C47.2030255,65.7112429 43.2385062,64.5982745 38.0220334,64.5982745 Z"/>
  </g>
</svg>
